<svg width="13" height="13" viewBox="0 0 13 13" fill="none" xmlns="http://www.w3.org/2000/svg">
<path d="M12.9207 12.1547L9.14426 8.37832C9.86053 7.49404 10.2917 6.36984 10.2917 5.14586C10.2917 2.30845 7.98324 0 5.14583 0C2.30842 0 0 2.30845 0 5.14586C0 7.98327 2.30845 10.2917 5.14586 10.2917C6.36984 10.2917 7.49404 9.86053 8.37832 9.14428L12.1547 12.9207C12.2605 13.0264 12.432 13.0264 12.5378 12.9207L12.9207 12.5377C13.0264 12.432 13.0264 12.2605 12.9207 12.1547ZM5.14586 9.20837C2.90566 9.20837 1.08334 7.38605 1.08334 5.14586C1.08334 2.90566 2.90566 1.08334 5.14586 1.08334C7.38605 1.08334 9.20837 2.90566 9.20837 5.14586C9.20837 7.38605 7.38605 9.20837 5.14586 9.20837Z" fill="white"/>
</svg>
